<svg width="15" height="15" viewBox="0 0 15 15" fill="none" xmlns="http://www.w3.org/2000/svg">
<path fill-rule="evenodd" clip-rule="evenodd" d="M9.94309 7.2947C10.0411 7.24877 10.1339 7.19815 10.2215 7.14286C10.6798 6.85714 11.0161 6.4881 11.2304 6.03571C11.4447 5.58333 11.5518 5.08929 11.5518 4.55357C11.5518 3.94643 11.4566 3.41964 11.2661 2.97321C11.0816 2.52679 10.8107 2.15774 10.4536 1.86607C10.0965 1.5744 9.66193 1.35714 9.15002 1.21429C8.63812 1.07143 8.05776 1 7.40895 1H3.40002V14H7.69467C8.56967 14 9.30776 13.8571 9.90895 13.5714C10.5101 13.2798 10.9655 12.8512 11.275 12.2857C11.5905 11.7143 11.7482 11.0119 11.7482 10.1786C11.7482 9.66071 11.656 9.17262 11.4715 8.71429C11.2929 8.25 10.9953 7.875 10.5786 7.58929C10.3942 7.46018 10.1823 7.36199 9.94309 7.2947ZM6.0161 8.33036V11.8393H7.69467C8.03991 11.8393 8.31967 11.7649 8.53395 11.6161C8.74824 11.4673 8.903 11.2679 8.99824 11.0179C9.09348 10.7619 9.1411 10.4702 9.1411 10.1429C9.1411 9.77381 9.09645 9.45238 9.00717 9.17857C8.92383 8.90476 8.78395 8.69643 8.58752 8.55357C8.3911 8.40476 8.12621 8.33036 7.79288 8.33036H6.0161ZM7.38217 6.4375C7.73931 6.4375 8.03098 6.37798 8.25717 6.25893C8.48931 6.13393 8.65895 5.95238 8.7661 5.71429C8.87919 5.47024 8.93574 5.1756 8.93574 4.83036C8.93574 4.43155 8.88514 4.1131 8.78395 3.875C8.68276 3.63095 8.51907 3.45238 8.29288 3.33929C8.06669 3.22619 7.77205 3.16964 7.40895 3.16964H6.0161V6.4375H7.38217Z" fill="black"/>
</svg>
