<svg width="15" height="15" viewBox="0 0 15 15" fill="none" xmlns="http://www.w3.org/2000/svg">
<g clip-path="url(#clip0_711_16)">
<path fill-rule="evenodd" clip-rule="evenodd" d="M14.4142 0.585233C14.0393 0.210506 13.5309 0 13.0009 0C12.4708 0 11.9625 0.210506 11.5876 0.585233L11.0473 1.12554C10.9784 1.05669 10.8967 1.00207 10.8067 0.964809C10.7168 0.927547 10.6203 0.908368 10.523 0.908368C10.4256 0.908368 10.3292 0.927547 10.2392 0.964809C10.1493 1.00207 10.0675 1.05669 9.99867 1.12554C9.92981 1.19439 9.8752 1.27613 9.83794 1.36609C9.80067 1.45605 9.78149 1.55247 9.78149 1.64984C9.78149 1.74721 9.80067 1.84362 9.83794 1.93358C9.8752 2.02354 9.92981 2.10528 9.99867 2.17413L10.1738 2.34923L4.34446 8.17754L2.32132 10.2017L2.00113 10.5059V11.0061V12.507V13.0073H2.27129L3.25484 13.0163L4.00227 13.0073H4.50255L4.90578 12.6311L12.6802 4.85665L12.8263 5.00074C12.895 5.06971 12.9768 5.12444 13.0667 5.16178C13.1567 5.19912 13.2532 5.21834 13.3506 5.21834C13.448 5.21834 13.5444 5.19912 13.6344 5.16178C13.7244 5.12444 13.8061 5.06971 13.8749 5.00074C14.165 4.71057 14.165 4.2413 13.8749 3.95214L14.4152 3.41183C15.1956 2.63139 15.1946 1.36668 14.4142 0.585233ZM8.79999 7.33706L6.06844 7.85235L10.523 3.39783L11.6316 4.50545L8.79999 7.33706ZM2.08118 13.6807C0.932528 13.6807 0 13.9758 0 14.341C0 14.7042 0.932528 14.9994 2.08118 14.9994C3.23183 14.9994 4.16236 14.7052 4.16236 14.34C4.16236 13.9758 3.23183 13.6807 2.08118 13.6807Z" fill="black"/>
</g>
<defs>
<clipPath id="clip0_711_16">
<rect width="15" height="15" fill="white"/>
</clipPath>
</defs>
</svg>
