<svg width="15" height="15" viewBox="0 0 15 15" fill="none" xmlns="http://www.w3.org/2000/svg">
<g clip-path="url(#clip0_711_19)">
<path d="M2.78467 10.8882C2.65576 11.0171 2.59131 11.1782 2.59131 11.3716C2.59131 11.5649 2.65576 11.7261 2.78467 11.855C2.91357 11.9839 3.08789 12.0483 3.30762 12.0483C3.52734 12.0483 3.70166 11.9839 3.83057 11.855C3.95947 11.7261 4.02393 11.5649 4.02393 11.3716C4.02393 11.1782 3.95947 11.0171 3.83057 10.8882C3.70166 10.7563 3.52734 10.6904 3.30762 10.6904C3.08789 10.6904 2.91357 10.7563 2.78467 10.8882Z" fill="black"/>
<path d="M2.77588 7.28467C2.64697 7.41357 2.58252 7.57471 2.58252 7.76807C2.58252 7.96143 2.64697 8.12256 2.77588 8.25146C2.90479 8.38037 3.0791 8.44482 3.29883 8.44482C3.51855 8.44482 3.69287 8.38037 3.82178 8.25146C3.95068 8.12256 4.01514 7.96143 4.01514 7.76807C4.01514 7.57471 3.95068 7.41357 3.82178 7.28467C3.69287 7.15283 3.51855 7.08691 3.29883 7.08691C3.0791 7.08691 2.90479 7.15283 2.77588 7.28467Z" fill="black"/>
<path d="M5.38623 12.5493L7.31543 5.60156H6.41895L4.48096 12.5493H5.38623Z" fill="black"/>
<path d="M7.28467 12.5493L9.21387 5.60156H8.31738L6.37939 12.5493H7.28467Z" fill="black"/>
<path d="M12.8745 12.9932V12H9.46436V12.9932H12.8745Z" fill="black"/>
<path fill-rule="evenodd" clip-rule="evenodd" d="M0 0V15H15V0H0ZM1 2.5V1H3V2.5H1ZM4 2.5V1H11V2.5H4ZM12 2.5V1H14V2.5H12ZM14 3.5V14H1V3.5H14Z" fill="black"/>
</g>
<defs>
<clipPath id="clip0_711_19">
<rect width="15" height="15" fill="white"/>
</clipPath>
</defs>
</svg>
