<svg width="15" height="15" viewBox="0 0 15 15" fill="none" xmlns="http://www.w3.org/2000/svg">
<g clip-path="url(#clip0_711_25)">
<path d="M3.5 5.5C3.5 4.94772 3.94772 4.5 4.5 4.5C5.05228 4.5 5.5 4.94772 5.5 5.5C5.5 6.05228 5.05228 6.5 4.5 6.5C3.94772 6.5 3.5 6.05228 3.5 5.5Z" fill="black"/>
<path d="M9.5 5.5C9.5 4.94772 9.94772 4.5 10.5 4.5C11.0523 4.5 11.5 4.94772 11.5 5.5C11.5 6.05228 11.0523 6.5 10.5 6.5C9.94772 6.5 9.5 6.05228 9.5 5.5Z" fill="black"/>
<path d="M10.9569 9.7894C10.8705 10.257 10.6562 10.7004 10.3316 11.0835C10.0069 11.4665 9.5811 11.7782 9.08897 11.9931C8.59683 12.2081 8.05234 12.3201 7.5 12.3201C6.94767 12.3201 6.40317 12.2081 5.91104 11.9931C5.4189 11.7782 4.9931 11.4665 4.66844 11.0835C4.34379 10.7004 4.1295 10.257 4.04309 9.78941L5.03992 9.67302C5.10017 9.93729 5.22949 10.1988 5.43127 10.4369C5.65045 10.6954 5.94906 10.9185 6.31127 11.0767C6.67353 11.2349 7.08138 11.3201 7.5 11.3201C7.91862 11.3201 8.32647 11.2349 8.68874 11.0767C9.05094 10.9185 9.34955 10.6954 9.56873 10.4369C9.77052 10.1988 9.89984 9.93729 9.96008 9.67302L10.9569 9.7894Z" fill="black"/>
<path fill-rule="evenodd" clip-rule="evenodd" d="M15 7.5C15 11.6421 11.6421 15 7.5 15C3.35786 15 0 11.6421 0 7.5C0 3.35786 3.35786 0 7.5 0C11.6421 0 15 3.35786 15 7.5ZM14 7.5C14 11.0899 11.0899 14 7.5 14C3.91015 14 1 11.0899 1 7.5C1 3.91015 3.91015 1 7.5 1C11.0899 1 14 3.91015 14 7.5Z" fill="black"/>
</g>
<defs>
<clipPath id="clip0_711_25">
<rect width="15" height="15" fill="white"/>
</clipPath>
</defs>
</svg>
