<svg width="15" height="15" viewBox="0 0 15 15" fill="none" xmlns="http://www.w3.org/2000/svg">
<g clip-path="url(#clip0_711_27)">
<path d="M7.56504 13.2347L13.5883 6.45858C14.153 5.79978 14.153 4.76454 13.4942 4.10574L10.9531 1.56468C10.6708 1.18823 10.2002 1 9.72965 1H8.03561C7.56504 1 7.09448 1.18823 6.71802 1.56468L0.412425 8.7173C-0.152255 9.37609 -0.152255 10.5055 0.506539 11.0701L3.0476 13.6112C3.32994 13.9876 3.80051 14.1759 4.27107 14.1759H15V13.2347H7.56504ZM6.34157 13.1406L3.80051 10.5996C3.42405 10.2231 3.42405 9.75254 3.80051 9.37609L7.00036 5.70567H6.05923L3.23583 8.81141C2.67115 9.4702 2.67115 10.4113 3.32994 11.0701L5.49455 13.2347H4.27107C4.08285 13.2347 3.89462 13.1406 3.70639 13.0465L1.07122 10.4113C0.788879 10.129 0.788879 9.65843 1.07122 9.37609L4.36519 5.70567H6.05923L9.3532 1.94113H10.2943L7.00036 5.70567L9.91788 9.18786L6.62391 12.9524C6.5298 13.0465 6.51562 13.1406 6.34157 13.1406Z" fill="black"/>
</g>
<defs>
<clipPath id="clip0_711_27">
<rect width="15" height="15" fill="white"/>
</clipPath>
</defs>
</svg>
