<svg width="15" height="15" viewBox="0 0 15 15" fill="none" xmlns="http://www.w3.org/2000/svg">
<g clip-path="url(#clip0_711_29)">
<path fill-rule="evenodd" clip-rule="evenodd" d="M12.7839 3.34369C12.8266 3.39828 12.8811 3.44246 12.9433 3.47293C13.0056 3.50339 13.0739 3.51934 13.1432 3.51956H14.1834C14.2443 3.51922 14.3045 3.50672 14.3605 3.48278C14.4164 3.45884 14.4671 3.42394 14.5094 3.38015C14.596 3.29122 14.6441 3.17182 14.6434 3.04771L14.6456 0.46327C14.645 0.340946 14.5963 0.223759 14.51 0.137062C14.4237 0.0503639 14.3068 0.00112615 14.1845 0H0.461156C0.399945 0.000560089 0.339446 0.0131897 0.283123 0.0371656C0.2268 0.0611415 0.17576 0.0959926 0.132926 0.139723C0.0900923 0.183454 0.0563057 0.235204 0.0335015 0.292012C0.0106972 0.348819 -0.000676673 0.409567 3.11149e-05 0.470777V3.05093C3.11149e-05 3.31045 0.205929 3.52064 0.461156 3.52064H1.50137C1.64078 3.52064 1.77375 3.45629 1.86062 3.34369L2.64346 2.34638H5.94104V14.5287C5.94104 14.7871 6.14694 14.9973 6.40216 14.9973H8.24345C8.4976 14.9973 8.70457 14.7871 8.70457 14.5287V2.3453H11.9968L12.7839 3.34369ZM14.904 12.0772C14.8458 11.9994 14.7643 11.9423 14.6713 11.9141C14.5783 11.8859 14.4787 11.8882 14.3871 11.9206L13.8005 12.1287V10.312C13.8008 10.1878 13.7523 10.0684 13.6654 9.9796C13.6228 9.9364 13.5721 9.9021 13.5161 9.87872C13.4601 9.85533 13.4001 9.84333 13.3394 9.84341H12.8794C12.7561 9.84454 12.6383 9.89452 12.5519 9.98238C12.4654 10.0702 12.4174 10.1888 12.4182 10.312V12.1287L11.8316 11.9206C11.7402 11.8885 11.6409 11.8863 11.5481 11.9145C11.4553 11.9426 11.374 11.9996 11.3158 12.0772C11.2566 12.1557 11.2232 12.2507 11.2201 12.349C11.217 12.4473 11.2445 12.5442 11.2987 12.6262L12.7271 14.7892C12.7688 14.8525 12.8256 14.9044 12.8923 14.9404C12.959 14.9763 13.0336 14.9951 13.1094 14.9951C13.1852 14.9951 13.2598 14.9763 13.3265 14.9404C13.3932 14.9044 13.45 14.8525 13.4917 14.7892L14.9212 12.6262C14.9754 12.5442 15.0028 12.4473 14.9998 12.349C14.9967 12.2507 14.9632 12.1557 14.904 12.0772V12.0772Z" fill="black"/>
</g>
<defs>
<clipPath id="clip0_711_29">
<rect width="15" height="15" fill="white"/>
</clipPath>
</defs>
</svg>
