<svg width="15" height="15" viewBox="0 0 15 15" fill="none" xmlns="http://www.w3.org/2000/svg">
<g clip-path="url(#clip0_711_32)">
<path d="M3.5 2.5C2.94772 2.5 2.5 2.94772 2.5 3.5C2.5 4.05228 2.94772 4.5 3.5 4.5C4.05228 4.5 4.5 4.05228 4.5 3.5C4.5 2.94772 4.05228 2.5 3.5 2.5Z" fill="black"/>
<path fill-rule="evenodd" clip-rule="evenodd" d="M0 0.5H15V14.5L0 14.5V0.5ZM1 1.5V8.88658L5.02019 5.31308L7.03997 7.33286L11.4758 2.26874L14 4.79289V1.5H1ZM1 13.5V10.2245L4.97981 6.68692L11.7929 13.5L1 13.5ZM14 13.5H13.2071L7.74862 8.04151L11.5242 3.73126L14 6.20711V13.5Z" fill="black"/>
</g>
<defs>
<clipPath id="clip0_711_32">
<rect width="15" height="15" fill="white"/>
</clipPath>
</defs>
</svg>
