<svg width="15" height="15" viewBox="0 0 15 15" fill="none" xmlns="http://www.w3.org/2000/svg">
<g clip-path="url(#clip0_711_41)">
<path fill-rule="evenodd" clip-rule="evenodd" d="M13.967 0.950001C13.6658 0.647979 13.3077 0.408683 12.9134 0.24596C12.5192 0.0832375 12.0965 0.000318471 11.67 0.00200112C10.8 0.00200112 9.984 0.339001 9.373 0.950001L7.105 3.218C6.71676 3.60729 6.43373 4.08878 6.28243 4.61735C6.13114 5.14592 6.11654 5.70425 6.24 6.24C5.70432 6.11443 5.14543 6.12799 4.61647 6.27939C4.08752 6.4308 3.6061 6.71501 3.21799 7.105L0.949995 9.373C0.341906 9.98279 0.000427246 10.8088 0.000427246 11.67C0.000427246 12.5312 0.341906 13.3572 0.949995 13.967C1.25118 14.269 1.60928 14.5083 2.00355 14.671C2.39783 14.8338 2.82046 14.9167 3.24699 14.915C4.11699 14.915 4.933 14.579 5.545 13.967L7.812 11.7C8.2004 11.3106 8.48352 10.8289 8.63482 10.3002C8.78612 9.77143 8.80063 9.2129 8.677 8.677C9.21267 8.80257 9.77156 8.78901 10.3005 8.63761C10.8295 8.4862 11.3109 8.20199 11.699 7.812L13.967 5.545C14.5756 4.9353 14.9175 4.109 14.9175 3.2475C14.9175 2.386 14.5756 1.55971 13.967 0.950001ZM7.105 10.993L4.837 13.26C4.62841 13.4688 4.38049 13.6343 4.10758 13.7467C3.83466 13.8591 3.54216 13.9163 3.24699 13.915C2.95183 13.9163 2.65933 13.8591 2.38642 13.7467C2.1135 13.6343 1.86558 13.4688 1.65699 13.26C1.23613 12.8379 0.9998 12.2661 0.9998 11.67C0.9998 11.0739 1.23613 10.5021 1.65699 10.08L3.92499 7.812C4.13355 7.60311 4.38146 7.43766 4.65438 7.32523C4.92731 7.2128 5.21982 7.15562 5.515 7.157C5.945 7.157 6.356 7.277 6.71 7.5L4.772 9.438L5.479 10.145L7.418 8.207C7.963 9.075 7.86 10.237 7.105 10.992V10.993ZM13.26 4.838L10.992 7.105C10.7834 7.31385 10.5355 7.47927 10.2626 7.5917C9.98966 7.70412 9.69716 7.76133 9.402 7.76C8.971 7.76 8.561 7.64 8.207 7.417L10.145 5.479L9.43799 4.772L7.499 6.71C7.2288 6.27872 7.11265 5.76863 7.16949 5.26288C7.22633 4.75713 7.45281 4.28555 7.812 3.925L10.079 1.657C10.2876 1.44816 10.5355 1.28273 10.8084 1.17031C11.0813 1.05788 11.3738 1.00067 11.669 1.002C11.9643 1.00028 12.2571 1.05716 12.5303 1.16936C12.8035 1.28156 13.0518 1.44684 13.2606 1.65564C13.4695 1.86444 13.6349 2.1126 13.7473 2.38577C13.8596 2.65893 13.9166 2.95165 13.915 3.247C13.915 3.85 13.683 4.416 13.26 4.838Z" fill="black"/>
</g>
<defs>
<clipPath id="clip0_711_41">
<rect width="15" height="15" fill="white"/>
</clipPath>
</defs>
</svg>
