<svg width="15" height="15" viewBox="0 0 15 15" fill="none" xmlns="http://www.w3.org/2000/svg">
<path d="M7.08984 1.48242L6.71631 0.303223C6.13037 0.48877 5.67383 0.752441 5.34668 1.09424C5.01953 1.43115 4.7876 1.82422 4.65088 2.27344C4.51416 2.71777 4.4458 3.19629 4.4458 3.70898V5.1958C4.4458 5.65967 4.36523 6.02832 4.2041 6.30176C4.04785 6.5752 3.78906 6.71191 3.42773 6.71191V8.22803C3.66699 8.22803 3.85986 8.28906 4.00635 8.41113C4.15771 8.5332 4.26758 8.70898 4.33594 8.93848C4.40918 9.16309 4.4458 9.43164 4.4458 9.74414V11.2236C4.4458 11.7363 4.51416 12.2148 4.65088 12.6592C4.7876 13.1084 5.01953 13.5015 5.34668 13.8384C5.67383 14.1802 6.13037 14.4463 6.71631 14.6367L7.08252 13.4502C6.87256 13.3428 6.70654 13.1816 6.58447 12.9668C6.4624 12.752 6.37939 12.4956 6.33545 12.1978C6.29639 11.8999 6.27686 11.5752 6.27686 11.2236V9.73682C6.27686 9.23877 6.1792 8.78955 5.98389 8.38916C5.80215 8.00706 5.51592 7.70055 5.12518 7.46964C5.51592 7.23429 5.80215 6.92556 5.98389 6.54346C6.1792 6.13818 6.27686 5.68896 6.27686 5.1958V3.70898C6.27686 3.18652 6.33057 2.7251 6.43799 2.32471C6.54541 1.91943 6.7627 1.63867 7.08984 1.48242Z" fill="black"/>
<path d="M8.27637 0.303223L7.88818 1.48242C8.11279 1.58496 8.28369 1.74609 8.40088 1.96582C8.52295 2.18066 8.60352 2.43701 8.64258 2.73486C8.68652 3.03271 8.7085 3.35742 8.7085 3.70898V5.1958C8.7085 5.68896 8.80615 6.13574 9.00146 6.53613C9.19743 6.92807 9.49634 7.23813 9.89817 7.46631C9.49634 7.69449 9.19743 8.00455 9.00146 8.39648C8.80615 8.79199 8.7085 9.23877 8.7085 9.73682V11.2236C8.7085 11.5752 8.68652 11.8975 8.64258 12.1904C8.60352 12.4883 8.52539 12.7446 8.4082 12.9595C8.29102 13.1792 8.12012 13.3428 7.89551 13.4502L8.28369 14.6367C8.85986 14.4463 9.31152 14.1802 9.63867 13.8384C9.9707 13.5015 10.2051 13.1084 10.3418 12.6592C10.4785 12.2148 10.5469 11.7388 10.5469 11.231V9.73682C10.5469 9.27783 10.625 8.91162 10.7812 8.63818C10.9375 8.36475 11.1963 8.22803 11.5576 8.22803V6.71191C11.3184 6.71191 11.123 6.65088 10.9717 6.52881C10.8252 6.40186 10.7178 6.22607 10.6494 6.00146C10.5811 5.77197 10.5469 5.50342 10.5469 5.1958V3.70898C10.5469 3.19629 10.4785 2.71777 10.3418 2.27344C10.2051 1.82422 9.9707 1.43115 9.63867 1.09424C9.31152 0.752441 8.85742 0.48877 8.27637 0.303223Z" fill="black"/>
</svg>
