<svg width="15" height="15" viewBox="0 0 15 15" fill="none" xmlns="http://www.w3.org/2000/svg">
<path d="M2.27279 1V3.86574H1.72282V1.67568L1.17678 1.88585V1.42623L2.21386 1H2.27279Z" fill="black"/>
<path d="M15 3.1953H4.56564V1.85442L15 1.88585V3.1953Z" fill="black"/>
<path d="M2.7383 8.45459V8.91225H1.05303V8.52137L1.82692 7.53732C1.90156 7.43387 1.95983 7.34352 2.00173 7.26626C2.04364 7.1877 2.07375 7.11764 2.09209 7.05609C2.11042 6.99324 2.11958 6.93432 2.11958 6.87932C2.11958 6.7942 2.10976 6.72153 2.09012 6.66129C2.07048 6.59975 2.04102 6.55261 2.00173 6.51987C1.96376 6.48583 1.91662 6.4688 1.86031 6.4688C1.79222 6.4688 1.73591 6.48976 1.69139 6.53166C1.64687 6.57356 1.61348 6.63118 1.59122 6.70451C1.57027 6.77653 1.55979 6.85837 1.55979 6.95003H1.00786C1.00786 6.77849 1.04256 6.62136 1.11196 6.47863C1.18267 6.33589 1.28153 6.22263 1.40855 6.13882C1.53688 6.05371 1.69074 6.01115 1.87013 6.01115C2.0456 6.01115 2.19226 6.04389 2.31011 6.10936C2.42927 6.17483 2.51897 6.26846 2.5792 6.39024C2.64075 6.51071 2.67152 6.65475 2.67152 6.82236C2.67152 6.91795 2.65908 7.01092 2.6342 7.10127C2.60932 7.19031 2.57396 7.27936 2.52813 7.3684C2.4823 7.45613 2.426 7.54583 2.35921 7.63749C2.29243 7.72915 2.21714 7.82409 2.13333 7.9223L1.76014 8.45459H2.7383Z" fill="black"/>
<path d="M15 8.24181H4.56564V6.90092H15V8.24181Z" fill="black"/>
<path d="M1.81514 12.2774H1.54801V12.7233H1.8171C1.88781 12.7233 1.94805 12.7383 1.9978 12.7685C2.04756 12.7973 2.08554 12.8431 2.11173 12.906C2.13792 12.9675 2.15101 13.0487 2.15101 13.1495C2.15101 13.2281 2.13857 13.2968 2.11369 13.3557C2.08881 13.4147 2.0528 13.4605 2.00566 13.4932C1.95852 13.526 1.90287 13.5423 1.83871 13.5423C1.78371 13.5423 1.73395 13.5266 1.68943 13.4952C1.64622 13.4638 1.61217 13.4206 1.58729 13.3656C1.56241 13.3093 1.54997 13.2458 1.54997 13.175H1C1 13.3165 1.02292 13.4389 1.06875 13.5423C1.11458 13.6458 1.17678 13.7316 1.25534 13.7997C1.33391 13.8677 1.4223 13.9182 1.52051 13.9509C1.62003 13.9836 1.72151 14 1.82496 14C1.94935 14 2.06459 13.9817 2.17065 13.945C2.27672 13.907 2.36969 13.852 2.44957 13.78C2.52944 13.708 2.59164 13.6196 2.63616 13.5148C2.68069 13.4101 2.70295 13.2909 2.70295 13.1574C2.70295 13.0487 2.68658 12.9492 2.65384 12.8588C2.6211 12.7685 2.57135 12.6905 2.50456 12.6251C2.44904 12.5695 2.3808 12.5253 2.29985 12.4924C2.36178 12.4586 2.41627 12.4177 2.46332 12.3697C2.52879 12.3016 2.57855 12.225 2.61259 12.1399C2.64795 12.0548 2.66563 11.9664 2.66563 11.8748C2.66563 11.6967 2.63027 11.5474 2.55956 11.4269C2.48885 11.3051 2.39064 11.2135 2.26493 11.1519C2.13923 11.0891 1.99322 11.0577 1.82692 11.0577C1.67895 11.0577 1.54408 11.0904 1.4223 11.1559C1.30052 11.2213 1.20362 11.3123 1.1316 11.4289C1.05958 11.5454 1.02357 11.6823 1.02357 11.8394H1.57747C1.57747 11.7726 1.58925 11.7157 1.61282 11.6685C1.6377 11.6201 1.67044 11.5827 1.71103 11.5566C1.75163 11.5304 1.79549 11.5173 1.84263 11.5173C1.90418 11.5173 1.95525 11.533 1.99584 11.5644C2.03643 11.5958 2.06655 11.6391 2.08619 11.6941C2.10583 11.749 2.11566 11.8132 2.11566 11.8865C2.11566 11.9651 2.10518 12.0339 2.08423 12.0928C2.06328 12.1517 2.03054 12.1975 1.98602 12.2303C1.9415 12.2617 1.88454 12.2774 1.81514 12.2774Z" fill="black"/>
<path d="M4.56564 13.2903H15V11.9494H4.56564V13.2903Z" fill="black"/>
</svg>
