<svg width="13" height="16" viewBox="0 0 13 16" fill="none" xmlns="http://www.w3.org/2000/svg">
<g clip-path="url(#clip0_711_62)">
<path fill-rule="evenodd" clip-rule="evenodd" d="M6.49815 13.9989C5.30534 13.9975 4.16177 13.5231 3.31832 12.6797C2.47488 11.8362 2.00045 10.6927 1.99912 9.49984C2.00018 8.30686 2.4745 7.16303 3.31797 6.31937C4.16144 5.47571 5.30517 5.00114 6.49815 4.99981V7.9995L11.496 4.00025L6.49815 0V2.99969C4.77504 3.00181 3.12314 3.68739 1.9049 4.906C0.686662 6.12462 0.00159024 7.77673 0 9.49984C0 13.0834 2.91455 16 6.49815 16C8.22109 15.9976 9.87274 15.3119 11.0908 14.0933C12.3088 12.8747 12.9937 11.2228 12.9953 9.49984H10.9962C10.9949 10.6925 10.5206 11.8359 9.67734 12.6793C8.83411 13.5227 7.69079 13.9973 6.49815 13.9989V13.9989Z" fill="black"/>
</g>
<defs>
<clipPath id="clip0_711_62">
<rect width="13" height="16" fill="white"/>
</clipPath>
</defs>
</svg>
