<svg width="15" height="15" viewBox="0 0 15 15" fill="none" xmlns="http://www.w3.org/2000/svg">
<path d="M6.43263 6H4.31927C4.27701 5.91989 4.23799 5.83768 4.20221 5.75334C4.04 5.37099 3.9589 4.9336 3.9589 4.44118C3.9589 3.94875 4.0429 3.49398 4.2109 3.07687C4.3847 2.65976 4.62802 2.29768 4.94085 1.99064C5.25948 1.67781 5.64183 1.43449 6.08791 1.2607C6.53399 1.0869 7.03221 1 7.58256 1C8.4052 1 9.09749 1.18249 9.65943 1.54746C10.2272 1.90664 10.6559 2.37879 10.9455 2.9639C11.2352 3.54323 11.38 4.1631 11.38 4.82353H9.78109C9.78109 4.34848 9.70288 3.92848 9.54647 3.5635C9.39584 3.19274 9.15832 2.90307 8.8339 2.69452C8.51527 2.48017 8.09816 2.37299 7.58256 2.37299C7.1191 2.37299 6.73675 2.46279 6.4355 2.64238C6.14005 2.82197 5.91991 3.06529 5.77508 3.37233C5.63604 3.67937 5.56652 4.02986 5.56652 4.4238C5.56652 4.69029 5.61286 4.9336 5.70556 5.15374C5.79825 5.36809 5.94018 5.56796 6.13136 5.75334C6.22197 5.83863 6.3224 5.92085 6.43263 6Z" fill="black"/>
<path d="M7.39139 8.17781C7.23014 8.12048 7.07361 8.06121 6.92179 8H10.3373C10.4211 8.07737 10.4992 8.15692 10.5719 8.23864C10.8499 8.54568 11.0527 8.89617 11.1802 9.29011C11.3134 9.67825 11.38 10.1185 11.38 10.611C11.38 11.1266 11.2931 11.5929 11.1193 12.01C10.9513 12.4271 10.7051 12.7834 10.3807 13.0789C10.0563 13.3743 9.66523 13.6032 9.20756 13.7654C8.7499 13.9218 8.2343 14 7.66077 14C7.16255 14 6.67303 13.9189 6.19219 13.7567C5.71714 13.5945 5.28555 13.3512 4.8974 13.0267C4.50926 12.7023 4.19932 12.3026 3.96759 11.8275C3.73586 11.3467 3.62 10.7906 3.62 10.1591H5.21893C5.21893 10.5936 5.28265 10.9672 5.4101 11.2801C5.53755 11.5871 5.71425 11.842 5.94018 12.0448C6.16612 12.2475 6.42392 12.3982 6.71358 12.4967C7.00903 12.5893 7.32476 12.6357 7.66077 12.6357C8.12423 12.6357 8.51237 12.5546 8.82521 12.3924C9.14384 12.2302 9.38136 11.9984 9.53778 11.6972C9.69999 11.3959 9.78109 11.0397 9.78109 10.6283C9.78109 10.3329 9.74633 10.0722 9.67681 9.84626C9.60729 9.61453 9.48564 9.40597 9.31184 9.22059C9.13804 9.0352 8.89473 8.85851 8.58189 8.69051C8.26906 8.5225 7.87222 8.3516 7.39139 8.17781Z" fill="black"/>
<path d="M2 7.5H13V6.5H2V7.5Z" fill="black"/>
</svg>
