<svg width="17" height="15" viewBox="0 0 17 15" fill="none" xmlns="http://www.w3.org/2000/svg">
<path d="M4.09015 1L5.90161 4.92151L7.74293 1H9.78331L6.86706 6.31494L9.86293 11.7692H7.84246L5.94142 7.72828L4.03043 11.7692H2L4.99588 6.31494L2.07962 1H4.09015Z" fill="black"/>
<path d="M14.4656 14.2007V15H10.1852V14.3006L12.2939 11.5084C12.5533 11.1649 12.7514 10.8739 12.8881 10.6355C13.0248 10.3936 13.1194 10.178 13.172 9.98873C13.2246 9.79592 13.2509 9.59961 13.2509 9.39979C13.2509 9.14739 13.2106 8.91952 13.13 8.7162C13.0493 8.50937 12.9319 8.3446 12.7776 8.22191C12.6234 8.09921 12.4376 8.03786 12.2203 8.03786C11.9363 8.03786 11.7032 8.10447 11.5209 8.23768C11.3421 8.36739 11.2106 8.54968 11.1265 8.78456C11.0424 9.01943 11.0003 9.28936 11.0003 9.59435H10.0696C10.0696 9.16316 10.1484 8.76878 10.3062 8.41121C10.4674 8.05364 10.7076 7.76968 11.0266 7.55935C11.3456 7.3455 11.7435 7.23858 12.2203 7.23858C12.6304 7.23858 12.981 7.32447 13.2719 7.49624C13.5664 7.66451 13.7908 7.90289 13.945 8.21139C14.1028 8.51638 14.1816 8.87395 14.1816 9.2841C14.1816 9.50846 14.1501 9.73633 14.087 9.9677C14.0274 10.1956 13.9433 10.4234 13.8346 10.6513C13.7294 10.8792 13.605 11.1035 13.4612 11.3244C13.3175 11.5452 13.1633 11.7626 12.9985 11.9764L11.3 14.2007H14.4656Z" fill="black"/>
</svg>
