<svg width="17" height="15" viewBox="0 0 17 15" fill="none" xmlns="http://www.w3.org/2000/svg">
<path d="M4.09015 4.23077L5.90161 8.15228L7.74293 4.23077H9.78331L6.86706 9.54571L9.86293 15H7.84246L5.94142 10.9591L4.03043 15H2L4.99588 9.54571L2.07962 4.23077H4.09015Z" fill="black"/>
<path d="M14.4671 6.96214V7.76142H10.1867V7.06205L12.2954 4.26983C12.5548 3.92628 12.7528 3.63532 12.8896 3.39693C13.0263 3.15505 13.1209 2.93945 13.1735 2.75015C13.2261 2.55734 13.2524 2.36103 13.2524 2.16121C13.2524 1.9088 13.2121 1.68094 13.1314 1.47761C13.0508 1.27078 12.9334 1.10602 12.7791 0.983323C12.6249 0.860626 12.4391 0.799279 12.2217 0.799279C11.9378 0.799279 11.7047 0.865885 11.5224 0.999098C11.3436 1.12881 11.2121 1.3111 11.128 1.54597C11.0438 1.78085 11.0018 2.05078 11.0018 2.35577H10.071C10.071 1.92458 10.1499 1.5302 10.3077 1.17263C10.4689 0.815054 10.7091 0.5311 11.0281 0.320763C11.3471 0.106921 11.745 0 12.2217 0C12.6319 0 12.9825 0.0858874 13.2734 0.257662C13.5679 0.425932 13.7922 0.664313 13.9465 0.972806C14.1042 1.27779 14.1831 1.63537 14.1831 2.04552C14.1831 2.26988 14.1516 2.49775 14.0885 2.72912C14.0289 2.95698 13.9447 3.18485 13.8361 3.41271C13.7309 3.64058 13.6064 3.86493 13.4627 4.08579C13.319 4.30664 13.1647 4.52399 13 4.73783L11.3015 6.96214H14.4671Z" fill="black"/>
</svg>
