<svg width="15" height="15" viewBox="0 0 15 15" fill="none" xmlns="http://www.w3.org/2000/svg">
<path d="M10.8032 1.33594H9.45557V8.84326C9.45557 9.3999 9.375 9.83447 9.21387 10.147C9.05762 10.4595 8.83301 10.6792 8.54004 10.8062C8.25195 10.9331 7.91016 10.9966 7.51465 10.9966C7.12402 10.9966 6.78223 10.9331 6.48926 10.8062C6.20117 10.6792 5.97656 10.4595 5.81543 10.147C5.65918 9.83447 5.58105 9.3999 5.58105 8.84326V1.33594H4.24072V8.84326C4.24072 9.64404 4.38477 10.2861 4.67285 10.7695C4.96582 11.2529 5.35889 11.6045 5.85205 11.8242C6.34521 12.0391 6.89941 12.1465 7.51465 12.1465C8.09082 12.1465 8.62793 12.0391 9.12598 11.8242C9.62891 11.6045 10.0342 11.2529 10.3418 10.7695C10.6494 10.2861 10.8032 9.64404 10.8032 8.84326V1.33594Z" fill="black"/>
<path d="M3 14H12V13H3V14Z" fill="black"/>
</svg>
