<svg width="13" height="16" viewBox="0 0 13 16" fill="none" xmlns="http://www.w3.org/2000/svg">
<g clip-path="url(#clip0_724_209)">
<path fill-rule="evenodd" clip-rule="evenodd" d="M6.49715 13.9989C7.68996 13.9975 8.83353 13.5231 9.67698 12.6797C10.5204 11.8362 10.9949 10.6927 10.9962 9.49984C10.9951 8.30686 10.5208 7.16303 9.67733 6.31937C8.83386 5.47571 7.69013 5.00114 6.49715 4.99981V7.9995L1.49934 4.00025L6.49715 0V2.99969C8.22026 3.00181 9.87216 3.68739 11.0904 4.906C12.3086 6.12462 12.9937 7.77673 12.9953 9.49984C12.9953 13.0834 10.0807 16 6.49715 16C4.77421 15.9976 3.12256 15.3119 1.90454 14.0933C0.68652 12.8747 0.00158558 11.2228 -4.15206e-06 9.49984H1.99912C2.00044 10.6925 2.47474 11.8359 3.31796 12.6793C4.16119 13.5227 5.30451 13.9973 6.49715 13.9989V13.9989Z" fill="black"/>
</g>
<defs>
<clipPath id="clip0_724_209">
<rect width="13" height="16" fill="white"/>
</clipPath>
</defs>
</svg>
