<svg width="15" height="15" viewBox="0 0 15 15" fill="none" xmlns="http://www.w3.org/2000/svg">
<g clip-path="url(#clip0_711_75)">
<path fill-rule="evenodd" clip-rule="evenodd" d="M13.956 1.037C13.2905 0.373223 12.389 0.000457764 11.449 0.000457764C10.5091 0.000457764 9.60751 0.373223 8.94202 1.037L6.43602 3.544L7.20602 4.314L9.71402 1.808C9.94165 1.58012 10.2122 1.39961 10.51 1.27689C10.8078 1.15416 11.1269 1.09167 11.449 1.093C12.107 1.093 12.724 1.347 13.185 1.808C13.645 2.269 13.9 2.886 13.9 3.544C13.9 4.202 13.646 4.818 13.185 5.279L9.90702 8.558C9.44622 9.0177 8.82191 9.27587 8.17102 9.27587C7.52013 9.27587 6.89582 9.0177 6.43502 8.558L5.66402 9.329C5.99299 9.65848 6.38381 9.9197 6.81405 10.0977C7.24428 10.2756 7.70543 10.3668 8.17102 10.366C9.07902 10.366 9.98702 10.02 10.678 9.329L13.956 6.051C14.2858 5.72234 14.547 5.33152 14.7247 4.90119C14.9023 4.47086 14.9929 4.00956 14.991 3.544C14.991 2.594 14.624 1.704 13.956 1.037Z" fill="black"/>
<path fill-rule="evenodd" clip-rule="evenodd" d="M7.40002 11.065L5.27802 13.185C5.05051 13.4131 4.78002 13.5938 4.48222 13.7167C4.18441 13.8396 3.86519 13.9023 3.54302 13.901C3.22075 13.9025 2.90139 13.8401 2.6034 13.7174C2.30542 13.5947 2.03473 13.414 1.80702 13.186C1.34738 12.7254 1.08924 12.1012 1.08924 11.4505C1.08924 10.7998 1.34738 10.1756 1.80702 9.715L4.89302 6.629C5.12065 6.40113 5.39118 6.22061 5.68897 6.09789C5.98677 5.97516 6.30593 5.91267 6.62802 5.914C7.28602 5.914 7.90302 6.168 8.36402 6.629L9.13502 5.858C8.46953 5.19422 7.56796 4.82146 6.62802 4.82146C5.68808 4.82146 4.78651 5.19422 4.12102 5.858L1.03602 8.944C0.706224 9.27247 0.444847 9.66308 0.267018 10.0932C0.0891891 10.5234 -0.00156095 10.9845 2.03139e-05 11.45C2.03139e-05 12.4 0.36702 13.29 1.03502 13.957C1.36357 14.2866 1.75422 14.5478 2.18437 14.7255C2.61452 14.9031 3.07563 14.9937 3.54102 14.992C4.49102 14.992 5.38102 14.624 6.04802 13.957L8.17002 11.836L7.40002 11.065ZM9.27402 12.002C9.12939 12.002 8.99066 12.0594 8.88829 12.1616C8.78593 12.2637 8.72828 12.4024 8.72802 12.547V14.184C8.73404 14.3246 8.79415 14.4575 8.89579 14.5549C8.99743 14.6523 9.13276 14.7066 9.27352 14.7066C9.41428 14.7066 9.54961 14.6523 9.65125 14.5549C9.75289 14.4575 9.813 14.3246 9.81902 14.184V12.547C9.81902 12.4025 9.7616 12.2638 9.65939 12.1616C9.55719 12.0594 9.41856 12.002 9.27402 12.002ZM11.23 11.616C11.1793 11.5653 11.1192 11.5251 11.0529 11.4977C10.9867 11.4702 10.9157 11.4561 10.844 11.4561C10.7723 11.4561 10.7013 11.4702 10.6351 11.4977C10.5689 11.5251 10.5087 11.5653 10.458 11.616C10.4073 11.6667 10.3671 11.7269 10.3397 11.7931C10.3123 11.8593 10.2981 11.9303 10.2981 12.002C10.2981 12.0737 10.3123 12.1447 10.3397 12.2109C10.3671 12.2771 10.4073 12.3373 10.458 12.388L11.615 13.544C11.6655 13.5949 11.7256 13.6353 11.7917 13.6628C11.8579 13.6904 11.9288 13.7046 12.0005 13.7046C12.0722 13.7046 12.1432 13.6904 12.2093 13.6628C12.2755 13.6353 12.3355 13.5949 12.386 13.544C12.488 13.4418 12.5453 13.3034 12.5453 13.159C12.5453 13.0146 12.488 12.8762 12.386 12.774L11.23 11.616ZM12.537 9.82H10.9C10.7594 9.82603 10.6265 9.88613 10.5291 9.98777C10.4317 10.0894 10.3774 10.2247 10.3774 10.3655C10.3774 10.5063 10.4317 10.6416 10.5291 10.7432C10.6265 10.8449 10.7594 10.905 10.9 10.911H12.537C12.6759 10.9026 12.8062 10.8415 12.9016 10.7402C12.9969 10.6389 13.05 10.5051 13.05 10.366C13.05 10.2269 12.9969 10.0931 12.9016 9.99178C12.8062 9.8905 12.6759 9.82942 12.537 9.821V9.82ZM4.91002 3.547C5.05448 3.54674 5.19295 3.48924 5.2951 3.38708C5.39725 3.28493 5.45476 3.14647 5.45502 3.002V1.366C5.44661 1.22717 5.38552 1.09678 5.28424 1.00145C5.18296 0.906117 5.04911 0.853034 4.91002 0.853034C4.77093 0.853034 4.63708 0.906117 4.5358 1.00145C4.43452 1.09678 4.37343 1.22717 4.36502 1.366V3.002C4.36502 3.303 4.60902 3.547 4.91002 3.547ZM2.88802 3.933C2.9385 3.98389 2.99855 4.02428 3.06471 4.05184C3.13088 4.0794 3.20184 4.09359 3.27352 4.09359C3.3452 4.09359 3.41616 4.0794 3.48233 4.05184C3.54849 4.02428 3.60854 3.98389 3.65902 3.933C3.70967 3.88239 3.74984 3.82229 3.77725 3.75615C3.80467 3.69 3.81877 3.6191 3.81877 3.5475C3.81877 3.4759 3.80467 3.405 3.77725 3.33886C3.74984 3.27271 3.70967 3.21262 3.65902 3.162L2.50202 2.005C2.45194 1.95226 2.39182 1.91007 2.32518 1.88093C2.25855 1.85178 2.18675 1.83627 2.11403 1.83531C2.0413 1.83434 1.96912 1.84794 1.90174 1.8753C1.83435 1.90267 1.77312 1.94324 1.72166 1.99463C1.6702 2.04603 1.62955 2.1072 1.6021 2.17455C1.57465 2.2419 1.56095 2.31407 1.56183 2.38679C1.5627 2.45952 1.57812 2.53133 1.60717 2.598C1.63623 2.66468 1.67834 2.72486 1.73102 2.775L2.88802 3.933ZM1.62802 5.73H3.26402C3.40883 5.73 3.54771 5.67248 3.6501 5.57008C3.7525 5.46769 3.81002 5.32881 3.81002 5.184C3.81002 5.0392 3.7525 4.90032 3.6501 4.79792C3.54771 4.69553 3.40883 4.638 3.26402 4.638H1.62802C1.48739 4.64403 1.35451 4.70413 1.25713 4.80577C1.15975 4.90742 1.10538 5.04274 1.10538 5.1835C1.10538 5.32427 1.15975 5.45959 1.25713 5.56123C1.35451 5.66288 1.48739 5.72398 1.62802 5.73Z" fill="black"/>
</g>
<defs>
<clipPath id="clip0_711_75">
<rect width="15" height="15" fill="white"/>
</clipPath>
</defs>
</svg>
