<svg width="15" height="15" viewBox="0 0 15 15" fill="none" xmlns="http://www.w3.org/2000/svg">
<g clip-path="url(#clip0_724_246)">
<path d="M2.003 0.855003C1.45071 0.855003 1.003 1.30272 1.003 1.855C1.003 2.40729 1.45071 2.855 2.003 2.855C2.55528 2.855 3.003 2.40729 3.003 1.855C3.003 1.30272 2.55528 0.855003 2.003 0.855003Z" fill="black"/>
<path d="M1.98279 4.61858C1.4305 4.61858 0.982788 5.06629 0.982788 5.61858C0.982788 6.17086 1.4305 6.61858 1.98279 6.61858C2.53507 6.61858 2.98279 6.17086 2.98279 5.61858C2.98279 5.06629 2.53507 4.61858 1.98279 4.61858Z" fill="black"/>
<path d="M2.0012 8.38362C1.44892 8.38362 1.0012 8.83133 1.0012 9.38362C1.0012 9.9359 1.44892 10.3836 2.0012 10.3836C2.55349 10.3836 3.0012 9.9359 3.0012 9.38362C3.0012 8.83133 2.55349 8.38362 2.0012 8.38362Z" fill="black"/>
<path d="M2 12.1457C1.44772 12.1457 1 12.5934 1 13.1457C1 13.698 1.44772 14.1457 2 14.1457C2.55229 14.1457 3 13.698 3 13.1457C3 12.5934 2.55229 12.1457 2 12.1457Z" fill="black"/>
<path d="M4.00002 2.35501H15V1.35501H4.00002V1.85501V2.35501Z" fill="black"/>
<path d="M4.00002 6.11858H15V5.11858H4.00002V5.61858V6.11858Z" fill="black"/>
<path d="M4.00002 9.88362H15V8.88362H4.00002V9.38362V9.88362Z" fill="black"/>
<path d="M4.00002 13.6457H15V12.6457H4.00002V13.1457V13.6457Z" fill="black"/>
</g>
<defs>
<clipPath id="clip0_724_246">
<rect width="15" height="15" fill="white"/>
</clipPath>
</defs>
</svg>
