<svg width="24" height="24" viewBox="0 0 24 24" fill="none" xmlns="http://www.w3.org/2000/svg">
    <path fill-rule="evenodd" clip-rule="evenodd" d="M17 12C17 14.7614 14.7614 17 12 17C9.23857 17 7 14.7614 7 12C7 9.23858 9.23857 7 12 7C14.7614 7 17 9.23858 17 12ZM14 12C14 13.1046 13.1046 14 12 14C10.8954 14 10 13.1046 10 12C10 10.8954 10.8954 10 12 10C13.1046 10 14 10.8954 14 12Z" fill="black"/>
    <path fill-rule="evenodd" clip-rule="evenodd" d="M22.8421 11.4606L23.187 12L22.8421 12.5394L22.8404 12.5419L22.8368 12.5476L22.8245 12.5664C22.8142 12.5822 22.7996 12.6045 22.7807 12.6329C22.743 12.6895 22.6884 12.7704 22.6176 12.872C22.4762 13.0752 22.2702 13.3619 22.0061 13.7044C21.4791 14.3878 20.7148 15.3016 19.7662 16.2189C17.9088 18.0151 15.1648 20 12 20C8.83518 20 6.09121 18.0151 4.23377 16.2189C3.28521 15.3016 2.52087 14.3878 1.99394 13.7044C1.72984 13.3619 1.52375 13.0752 1.38237 12.872C1.31165 12.7704 1.257 12.6895 1.21928 12.6329C1.20042 12.6045 1.18577 12.5822 1.17546 12.5664L1.16323 12.5476L1.15958 12.5419L1.15837 12.5401L0.812954 12L1.15792 11.4606L1.15958 11.4581L1.16323 11.4524L1.17546 11.4336C1.18577 11.4178 1.20042 11.3955 1.21928 11.3671C1.257 11.3105 1.31165 11.2296 1.38237 11.128C1.52375 10.9248 1.72984 10.6381 1.99394 10.2956C2.52087 9.61225 3.28521 8.69844 4.23377 7.78115C6.09121 5.98492 8.83518 4 12 4C15.1648 4 17.9088 5.98492 19.7662 7.78115C20.7148 8.69844 21.4791 9.61225 22.0061 10.2956C22.2702 10.6381 22.4762 10.9248 22.6176 11.128C22.6884 11.2296 22.743 11.3105 22.7807 11.3671C22.7996 11.3955 22.8142 11.4178 22.8245 11.4336L22.8368 11.4524L22.8404 11.4581L22.8421 11.4606ZM3.57776 12.4831C3.43859 12.3026 3.31766 12.1399 3.21623 12C3.31766 11.8601 3.43859 11.6974 3.57776 11.5169C4.06288 10.8878 4.76301 10.0516 5.62409 9.21885C7.38594 7.51508 9.64196 6 12 6C14.358 6 16.6141 7.51508 18.3759 9.21885C19.237 10.0516 19.9371 10.8878 20.4222 11.5169C20.5614 11.6974 20.6823 11.8601 20.7838 12C20.6823 12.1399 20.5614 12.3026 20.4222 12.4831C19.9371 13.1122 19.237 13.9484 18.3759 14.7811C16.6141 16.4849 14.358 18 12 18C9.64196 18 7.38594 16.4849 5.62409 14.7811C4.76301 13.9484 4.06288 13.1122 3.57776 12.4831Z" fill="black"/>
</svg>
